<?xml version="1.0" encoding="utf-8"?>
<!-- Generator: Adobe Illustrator 15.0.0, SVG Export Plug-In  -->
<!DOCTYPE svg PUBLIC "-//W3C//DTD SVG 1.1//EN" "http://www.w3.org/Graphics/SVG/1.1/DTD/svg11.dtd" [
	<!ENTITY ns_flows "http://ns.adobe.com/Flows/1.0/">
]>
<svg version="1.1"
	 xmlns="http://www.w3.org/2000/svg" xmlns:xlink="http://www.w3.org/1999/xlink" xmlns:a="http://ns.adobe.com/AdobeSVGViewerExtensions/3.0/"
	 x="0px" y="0px" width="828px" height="315px" viewBox="-285 -32 828 315"
	 overflow="visible" enable-background="new -285 -32 828 315" xml:space="preserve">
<defs>
</defs>
<rect x="63.587" y="13.585" fill="#F6F6F6" width="129.936" height="12.374"/>
<path fill="#F6F6F6" d="M218.273,25.959h24.753v37.125H14.076V25.959h24.753V13.585H1.709v235.131h253.69V13.585h-37.126V25.959z
	 M243.026,236.338H14.076V75.462h228.95V236.338z"/>
<rect x="199.715" y="1.206" fill="#F6F6F6" width="12.372" height="37.132"/>
<rect x="45.021" y="1.206" fill="#F6F6F6" width="12.373" height="37.132"/>
<path fill="#F6F6F6" d="M118.269,125.773H82.876V90.38h35.393V125.773z M91.137,117.512h18.871V98.641H91.137V117.512z"/>
<path fill="#F6F6F6" d="M169.377,125.773h-35.386V90.38h35.386V125.773z M142.251,117.512h18.866V98.641h-18.866V117.512z"/>
<path fill="#F6F6F6" d="M220.486,125.773h-35.39V90.38h35.39V125.773z M193.356,117.512h18.87V98.641h-18.87V117.512z"/>
<path fill="#F6F6F6" d="M118.269,174.986H82.876v-35.39h35.393V174.986z M91.137,166.727h18.871v-18.87H91.137V166.727z"/>
<path fill="#F6F6F6" d="M169.377,174.986h-35.386v-35.39h35.386V174.986z M142.251,166.727h18.866v-18.87h-18.866V166.727z"/>
<path fill="#F6F6F6" d="M220.486,174.986h-35.39v-35.39h35.39V174.986z M193.356,166.727h18.87v-18.87h-18.87V166.727z"/>
<path fill="#F6F6F6" d="M67.798,224.201H32.399v-35.396h35.399V224.201z M40.66,215.941h18.878v-18.877H40.66V215.941z"/>
<path fill="#F6F6F6" d="M118.9,224.201H83.508v-35.396H118.9V224.201z M91.769,215.941h18.87v-18.877h-18.87V215.941z"/>
<path fill="#F6F6F6" d="M170.009,224.201h-35.39v-35.396h35.39V224.201z M142.879,215.941h18.87v-18.877h-18.87V215.941z"/>
<rect id="_x3C_Tranche_x3E__1_" fill="none" width="257" height="249"/>
</svg>
