<?xml version="1.0" encoding="utf-8"?>
<!-- Generator: Adobe Illustrator 15.0.0, SVG Export Plug-In  -->
<!DOCTYPE svg PUBLIC "-//W3C//DTD SVG 1.1//EN" "http://www.w3.org/Graphics/SVG/1.1/DTD/svg11.dtd" [
	<!ENTITY ns_flows "http://ns.adobe.com/Flows/1.0/">
]>
<svg version="1.1"
	 xmlns="http://www.w3.org/2000/svg" xmlns:xlink="http://www.w3.org/1999/xlink" xmlns:a="http://ns.adobe.com/AdobeSVGViewerExtensions/3.0/"
	 x="0px" y="0px" width="259px" height="757px" viewBox="-3.005 -5.505 259 757"
	 overflow="visible" enable-background="new -3.005 -5.505 259 757" xml:space="preserve">
<defs>
</defs>
<path fill="#5E5F65" d="M210.757,376.291c-1.421,1.42-3.221,2.12-5.101,2.12c-4.842,0-7.262-3.24-7.282-7.142
	c-0.021-3.82,2.421-7.281,7.282-7.281c1.859,0,3.74,0.66,4.961,2.101l-0.86,0.86c-1.141-1.12-2.601-1.681-4.101-1.681
	c-3.901,0-5.882,2.881-5.882,5.981c0,3.28,1.98,5.861,5.882,5.861c1.5,0,3.08-0.601,4.2-1.721L210.757,376.291z"/>
<path fill="#5E5F65" d="M223.557,373.27c0,3.061-2.16,5.081-5.081,5.081c-2.881,0-5.081-2.021-5.081-5.081s2.12-5.142,5.081-5.142
	C221.356,368.128,223.557,370.209,223.557,373.27z M214.735,373.27c0,2.301,1.561,3.82,3.741,3.82c2.22,0,3.741-1.52,3.741-3.82
	c0-2.28-1.541-3.921-3.741-3.921S214.735,370.99,214.735,373.27z"/>
<path fill="#5E5F65" d="M228.435,368.309v5.541c0,2.061,1.24,3.24,3.241,3.221c1.9,0,3.24-1.48,3.24-3.381v-5.381h1.32v9.882h-1.24
	l-0.041-1.66c-0.819,1.26-2.119,1.8-3.5,1.82c-2.561,0-4.361-1.66-4.361-4.481v-5.561H228.435z"/>
<path fill="#5E5F65" d="M240.554,382.912v-14.603h1.3l0.04,2.101c0.761-1.4,2.28-2.261,4.001-2.261c2.781,0.08,4.861,2,4.861,5.101
	c0,3.221-2.121,5.142-5.002,5.142c-1.52,0-3.08-0.7-3.881-2.2v6.721H240.554z M249.417,373.25c0-2.46-1.602-3.801-3.721-3.801
	c-2.182,0-3.701,1.621-3.701,3.821s1.58,3.82,3.701,3.82C247.776,377.09,249.417,375.73,249.417,373.25z"/>
<path fill="#5E5F65" d="M127.459,329.545l-5.221,7.682h-0.4l-5.241-7.782v12.043h-1.4v-14.003c0.64,0,1.08,0,1.72,0l5.121,7.722
	l5.061-7.722h1.761v14.003h-1.4V329.545z"/>
<path fill="#5E5F65" d="M141.638,331.606h1.261c0,3.301,0,6.581,0,9.882h-1.24v-1.96c-0.861,1.46-2.441,2.16-3.922,2.16
	c-2.801,0-5.041-2.001-5.041-5.142c0-3.12,2.261-5.081,5.062-5.081c1.521,0,3.141,0.7,3.881,2.101V331.606z M134.036,336.546
	c0,2.341,1.682,3.881,3.762,3.881c5.102,0,5.102-7.741,0-7.741C135.717,332.686,134.036,334.226,134.036,336.546z"/>
<path fill="#5E5F65" d="M148.417,331.606v5.541c0,2.061,1.24,3.24,3.24,3.221c1.9,0,3.24-1.48,3.24-3.381v-5.381h1.32v9.882h-1.24
	l-0.039-1.66c-0.82,1.26-2.121,1.8-3.502,1.82c-2.561,0-4.36-1.66-4.36-4.481v-5.561H148.417z"/>
<path fill="#5E5F65" d="M166.557,331.606h1.62v0.06l-3.461,4.741l3.721,5.041v0.04h-1.601l-2.961-4.141l-2.96,4.141h-1.601v-0.04
	l3.721-5.041l-3.461-4.741v-0.06h1.602l2.699,3.881L166.557,331.606z"/>
<path fill="#5E5F65" d="M187.538,327.485v14.003h-1.301l-0.04-1.98c-0.8,1.42-2.321,2.16-3.881,2.16
	c-2.801,0-4.981-1.84-4.981-5.121c0-3.301,2.181-5.121,4.981-5.121c1.54,0,3.141,0.681,3.881,2.141v-6.081H187.538z
	 M178.674,336.546c0,2.48,1.661,3.841,3.722,3.841c2.12,0,3.741-1.56,3.741-3.86c0-2.261-1.641-3.821-3.741-3.821
	C180.335,332.706,178.674,334.026,178.674,336.546z"/>
<path fill="#5E5F65" d="M192.594,337.107c0.181,2.061,1.781,3.28,3.742,3.28c1.199,0,2.64-0.479,3.34-1.36l0.9,0.801
	c-0.98,1.22-2.681,1.84-4.24,1.84c-2.941,0-5.121-1.98-5.121-5.141c0-2.961,2.119-5.102,5.061-5.102c2.94,0,5.301,1.78,4.921,5.682
	H192.594z M199.936,335.966c-0.039-2.16-1.66-3.341-3.641-3.341s-3.44,1.2-3.701,3.341H199.936z"/>
<path fill="#5E5F65" d="M213.315,328.685v2.94h3.201v1.141h-3.201v5.581c0,1.24,0.34,2.061,1.68,2.061
	c0.461,0,0.961-0.16,1.441-0.38l0.42,1.12c-0.641,0.3-1.261,0.479-1.9,0.479c-2.121,0.021-2.98-1.22-2.98-3.28v-5.581h-2.021v-1.141
	h2.021v-2.801L213.315,328.685z"/>
<path fill="#5E5F65" d="M229.116,337.107h-8.602c0.18,2.061,1.781,3.28,3.741,3.28c1.2,0,2.64-0.479,3.341-1.36l0.9,0.801
	c-0.98,1.22-2.682,1.84-4.241,1.84c-2.94,0-5.121-1.98-5.121-5.141c0-2.961,2.12-5.102,5.062-5.102
	C227.135,331.425,229.497,333.206,229.116,337.107z M220.514,335.966h7.342c-0.04-2.16-1.66-3.341-3.641-3.341
	S220.774,333.826,220.514,335.966z M224.036,327.405l-2.881,2.66v0.141h1.42l1.92-1.74l1.921,1.74h1.421v-0.141l-2.861-2.66H224.036
	z"/>
<path fill="#5E5F65" d="M235.075,328.685v2.94h3.201v1.141h-3.201v5.581c0,1.24,0.34,2.061,1.68,2.061
	c0.461,0,0.961-0.16,1.441-0.38l0.42,1.12c-0.641,0.3-1.261,0.479-1.9,0.479c-2.121,0.021-2.98-1.22-2.98-3.28v-5.581h-2.021v-1.141
	h2.021v-2.801L235.075,328.685z"/>
<path fill="#5E5F65" d="M242.274,337.107c0.18,2.061,1.781,3.28,3.741,3.28c1.2,0,2.64-0.479,3.341-1.36l0.9,0.801
	c-0.98,1.22-2.682,1.84-4.241,1.84c-2.94,0-5.121-1.98-5.121-5.141c0-2.961,2.12-5.102,5.062-5.102c2.939,0,5.301,1.78,4.92,5.682
	H242.274z M249.616,335.966c-0.04-2.16-1.66-3.341-3.641-3.341s-3.441,1.2-3.701,3.341H249.616z"/>
<path fill="#5E5F65" d="M160.716,438.915h-4.94v-1.32c3.96,0,7.32,0,11.281,0v1.32h-4.94v12.682h-1.4V438.915z"/>
<path fill="#5E5F65" d="M168.456,447.215c0.18,2.061,1.781,3.281,3.741,3.281c1.2,0,2.64-0.48,3.341-1.361l0.9,0.801
	c-0.98,1.221-2.682,1.84-4.241,1.84c-2.94,0-5.121-1.98-5.121-5.141c0-2.961,2.12-5.102,5.062-5.102c2.939,0,5.301,1.781,4.92,5.682
	H168.456z M175.797,446.075c-0.04-2.16-1.66-3.34-3.641-3.34s-3.441,1.199-3.701,3.34H175.797z"/>
<path fill="#5E5F65" d="M188.436,451.596v-5.541c0-2.121-1.24-3.24-3.221-3.24c-1.92,0.02-3.24,1.5-3.24,3.4v5.381h-1.34v-9.881
	h1.28l0.04,1.66c0.82-1.262,2.1-1.82,3.44-1.82c2.561,0,4.401,1.52,4.401,4.48v5.561H188.436z"/>
<path fill="#5E5F65" d="M203.577,437.594v14.002h-1.3l-0.04-1.98c-0.801,1.42-2.32,2.16-3.881,2.16c-2.801,0-4.98-1.84-4.98-5.121
	c0-3.301,2.18-5.121,4.98-5.121c1.54,0,3.141,0.682,3.881,2.141v-6.08H203.577z M194.715,446.655c0,2.48,1.66,3.842,3.721,3.842
	c2.12,0,3.74-1.561,3.74-3.861c0-2.26-1.641-3.82-3.74-3.82C196.375,442.815,194.715,444.135,194.715,446.655z"/>
<path fill="#5E5F65" d="M209.536,438.614c0,1.26-1.9,1.26-1.9,0S209.536,437.354,209.536,438.614z M207.895,441.674v9.922h1.34
	v-9.922H207.895z"/>
<path fill="#5E5F65" d="M221.356,451.596v-5.541c0-2.121-1.24-3.24-3.221-3.24c-1.92,0.02-3.24,1.5-3.24,3.4v5.381h-1.34v-9.881
	h1.279l0.041,1.66c0.819-1.262,2.1-1.82,3.439-1.82c2.561,0,4.401,1.52,4.401,4.48v5.561H221.356z"/>
<path fill="#5E5F65" d="M228.554,438.614c0,1.26-1.9,1.26-1.9,0S228.554,437.354,228.554,438.614z M226.915,441.674v9.922h1.34
	v-9.922H226.915z"/>
<path fill="#5E5F65" d="M235.075,438.793v2.941h3.2v1.141h-3.2v5.58c0,1.24,0.34,2.061,1.68,2.061c0.46,0,0.961-0.16,1.44-0.379
	l0.42,1.119c-0.64,0.301-1.261,0.48-1.9,0.48c-2.12,0.02-2.98-1.221-2.98-3.281v-5.58h-2.021v-1.141h2.021v-2.801L235.075,438.793z"
	/>
<path fill="#5E5F65" d="M242.274,447.215c0.18,2.061,1.78,3.281,3.74,3.281c1.201,0,2.641-0.48,3.341-1.361l0.9,0.801
	c-0.98,1.221-2.681,1.84-4.241,1.84c-2.94,0-5.121-1.98-5.121-5.141c0-2.961,2.121-5.102,5.062-5.102s5.301,1.781,4.921,5.682
	H242.274z M249.616,446.075c-0.041-2.16-1.66-3.34-3.641-3.34s-3.441,1.199-3.701,3.34H249.616z"/>
<path fill="#5E5F65" d="M112.978,304.785v-6.201h-8.482v6.201h-1.4v-14.003h1.4v6.481h8.482v-6.481h1.4v14.003H112.978z"/>
<path fill="#5E5F65" d="M119.596,300.404c0.18,2.061,1.781,3.28,3.741,3.28c1.2,0,2.64-0.479,3.34-1.36l0.9,0.801
	c-0.98,1.22-2.681,1.84-4.241,1.84c-2.941,0-5.121-1.98-5.121-5.141c0-2.961,2.12-5.102,5.061-5.102c2.94,0,5.301,1.78,4.921,5.682
	H119.596z M126.938,299.263c-0.04-2.16-1.66-3.341-3.641-3.341s-3.441,1.2-3.701,3.341H126.938z"/>
<path fill="#5E5F65" d="M133.036,294.903l0.08,1.62c0.641-1.32,1.961-1.78,3.141-1.78c0.9,0,1.521,0.2,2.24,0.7l-0.619,1.12
	c-0.5-0.34-1.061-0.521-1.701-0.521c-1.7,0.021-3.061,1.32-3.061,3.121v5.621h-1.34v-9.882H133.036z"/>
<path fill="#5E5F65" d="M149.137,304.785v-5.541c0-2.121-1.24-3.241-3.221-3.241c-1.921,0.021-3.241,1.501-3.241,3.401v5.381h-1.34
	v-9.882h1.28l0.039,1.66c0.82-1.261,2.102-1.82,3.441-1.82c2.561,0,4.4,1.521,4.4,4.48v5.562H149.137z"/>
<path fill="#5E5F65" d="M156.335,291.802c0,1.26-1.9,1.26-1.9,0C154.435,290.542,156.335,290.542,156.335,291.802z M154.696,294.863
	v9.922h1.34v-9.922H154.696z"/>
<path fill="#5E5F65" d="M161.094,300.404c0.181,2.061,1.781,3.28,3.742,3.28c1.199,0,2.64-0.479,3.34-1.36l0.9,0.801
	c-0.98,1.22-2.681,1.84-4.24,1.84c-2.941,0-5.121-1.98-5.121-5.141c0-2.961,2.119-5.102,5.061-5.102c2.94,0,5.301,1.78,4.921,5.682
	H161.094z M168.436,299.263c-0.039-2.16-1.66-3.341-3.641-3.341s-3.44,1.2-3.701,3.341H168.436z"/>
<path fill="#5E5F65" d="M189.276,290.782v14.003h-1.3l-0.04-1.98c-0.801,1.42-2.32,2.16-3.881,2.16c-2.801,0-4.98-1.84-4.98-5.121
	c0-3.301,2.18-5.121,4.98-5.121c1.54,0,3.141,0.681,3.881,2.141v-6.081H189.276z M180.415,299.843c0,2.48,1.66,3.841,3.721,3.841
	c2.12,0,3.74-1.56,3.74-3.86c0-2.261-1.641-3.821-3.74-3.821C182.075,296.002,180.415,297.323,180.415,299.843z"/>
<path fill="#5E5F65" d="M195.235,291.802c0,1.26-1.9,1.26-1.9,0C193.334,290.542,195.235,290.542,195.235,291.802z M193.594,294.863
	v9.922h1.34v-9.922H193.594z"/>
<path fill="#5E5F65" d="M205.696,296.923c-0.921-0.841-1.861-1.001-2.922-1.001c-1.439-0.02-2.721,0.501-2.68,1.601
	c0.02,1.16,1.46,1.44,2.7,1.62c1.78,0.261,4.081,0.561,4.081,2.961c-0.04,2.08-2.061,2.881-4.061,2.881
	c-1.701,0-3.381-0.561-4.381-1.921l0.84-0.92c0.84,1.141,2.301,1.58,3.561,1.601c1.12,0,2.701-0.32,2.701-1.66
	c0-1.301-1.281-1.541-2.861-1.761c-1.9-0.28-3.881-0.72-3.9-2.761c0-2.021,2.04-2.881,3.98-2.86c1.48,0,2.701,0.4,3.721,1.34
	L205.696,296.923z"/>
<path fill="#5E5F65" d="M218.575,303.445c-1.04,1.02-2.32,1.5-3.66,1.5c-2.801,0-5.121-1.881-5.121-5.102
	c0-3.2,2.26-5.081,5.121-5.081c1.32,0,2.48,0.46,3.5,1.461l-0.88,0.86c-0.739-0.721-1.64-1.061-2.601-1.061
	c-2.1,0-3.801,1.4-3.801,3.82c0,2.48,1.721,3.821,3.781,3.821c1,0,2-0.38,2.74-1.12L218.575,303.445z"/>
<path fill="#5E5F65" d="M230.015,294.903h1.261c0,3.301,0,6.581,0,9.882h-1.24v-1.96c-0.861,1.46-2.441,2.16-3.922,2.16
	c-2.801,0-5.041-2.001-5.041-5.142c0-3.12,2.261-5.081,5.062-5.081c1.521,0,3.141,0.7,3.881,2.101V294.903z M222.413,299.843
	c0,2.341,1.682,3.881,3.762,3.881c5.102,0,5.102-7.741,0-7.741C224.094,295.983,222.413,297.523,222.413,299.843z"/>
<path fill="#5E5F65" d="M237.073,290.782v14.003h-1.34v-14.003H237.073z"/>
<path fill="#5E5F65" d="M242.273,300.404c0.181,2.061,1.78,3.28,3.741,3.28c1.2,0,2.641-0.479,3.34-1.36l0.9,0.801
	c-0.98,1.22-2.68,1.84-4.24,1.84c-2.941,0-5.121-1.98-5.121-5.141c0-2.961,2.12-5.102,5.061-5.102c2.941,0,5.301,1.78,4.922,5.682
	H242.273z M249.615,299.263c-0.04-2.16-1.66-3.341-3.641-3.341s-3.44,1.2-3.701,3.341H249.615z"/>
<path fill="#5E5F65" d="M184.037,180.672c2.46,0,4.681,1.08,4.681,3.841c0,1.36-0.84,2.521-2.2,2.98c1.72,0.5,2.62,1.98,2.62,3.4
	c0,2.901-2.58,3.781-5.101,3.781c-2.081,0-3.881,0-5.962,0v-14.003H184.037z M179.475,186.874h4.662c1.68,0,3.18-0.68,3.18-2.381
	c0-1.88-1.561-2.521-3.28-2.521h-4.562V186.874z M179.475,193.355h4.562c1.601,0,3.7-0.5,3.7-2.48c-0.02-1.94-1.92-2.721-3.6-2.721
	c-1.581,0-3.062,0-4.662,0V193.355z"/>
<path fill="#5E5F65" d="M194.055,184.793v5.541c0,2.061,1.24,3.24,3.24,3.221c1.9,0,3.241-1.48,3.241-3.381v-5.381h1.319v9.882
	h-1.24l-0.039-1.66c-0.82,1.26-2.121,1.8-3.501,1.82c-2.561,0-4.36-1.66-4.36-4.481v-5.561H194.055z"/>
<path fill="#5E5F65" d="M207.435,184.793l0.079,1.62c0.641-1.32,1.961-1.78,3.142-1.78c0.899,0,1.521,0.2,2.24,0.7l-0.62,1.12
	c-0.5-0.34-1.061-0.521-1.7-0.521c-1.7,0.021-3.062,1.32-3.062,3.121v5.621h-1.34v-9.882H207.435z"/>
<path fill="#5E5F65" d="M222.176,186.814c-0.921-0.841-1.861-1.001-2.922-1.001c-1.439-0.02-2.721,0.501-2.68,1.601
	c0.02,1.16,1.46,1.44,2.7,1.62c1.78,0.261,4.081,0.561,4.081,2.961c-0.04,2.08-2.061,2.881-4.061,2.881
	c-1.701,0-3.381-0.561-4.381-1.921l0.84-0.92c0.84,1.141,2.301,1.58,3.561,1.601c1.12,0,2.701-0.32,2.701-1.66
	c0-1.301-1.281-1.541-2.861-1.761c-1.9-0.28-3.881-0.72-3.9-2.761c0-2.021,2.04-2.881,3.98-2.86c1.48,0,2.701,0.4,3.721,1.34
	L222.176,186.814z"/>
<path fill="#5E5F65" d="M228.555,181.693c0,1.26-1.9,1.26-1.9,0C226.655,180.432,228.555,180.432,228.555,181.693z M226.915,184.753
	v9.922h1.34v-9.922H226.915z"/>
<path fill="#5E5F65" d="M235.075,181.873v2.94h3.201v1.141h-3.201v5.581c0,1.24,0.34,2.061,1.68,2.061
	c0.461,0,0.961-0.16,1.441-0.38l0.42,1.12c-0.641,0.3-1.261,0.479-1.9,0.479c-2.121,0.021-2.98-1.22-2.98-3.28v-5.581h-2.021v-1.141
	h2.021v-2.801L235.075,181.873z"/>
<path fill="#5E5F65" d="M242.274,190.294c0.18,2.061,1.781,3.28,3.741,3.28c1.2,0,2.64-0.479,3.341-1.36l0.9,0.801
	c-0.98,1.22-2.682,1.84-4.241,1.84c-2.94,0-5.121-1.98-5.121-5.141c0-2.961,2.12-5.102,5.062-5.102c2.939,0,5.301,1.78,4.92,5.682
	H242.274z M249.616,189.154c-0.04-2.16-1.66-3.341-3.641-3.341s-3.441,1.2-3.701,3.341H249.616z"/>
<path fill="#5E5F65" d="M181.777,231.378h-10.042c0-4.661,0-9.342,0-14.003h9.862v1.32h-8.462v5.021h8.082v1.301h-8.082v5.041h8.642
	V231.378z"/>
<path fill="#5E5F65" d="M193.336,231.378v-5.541c0-2.121-1.24-3.241-3.221-3.241c-1.921,0.021-3.241,1.501-3.241,3.401v5.381h-1.34
	v-9.882h1.28l0.039,1.66c0.82-1.261,2.102-1.82,3.441-1.82c2.561,0,4.4,1.521,4.4,4.48v5.562H193.336z"/>
<path fill="#5E5F65" d="M201.135,218.576v2.94h3.201v1.141h-3.201v5.581c0,1.24,0.34,2.061,1.68,2.061
	c0.461,0,0.961-0.16,1.441-0.38l0.42,1.12c-0.641,0.3-1.261,0.479-1.9,0.479c-2.121,0.021-2.98-1.22-2.98-3.28v-5.581h-2.021v-1.141
	h2.021v-2.801L201.135,218.576z"/>
<path fill="#5E5F65" d="M217.117,226.458c0,3.061-2.161,5.081-5.081,5.081c-2.881,0-5.081-2.021-5.081-5.081s2.12-5.142,5.081-5.142
	C214.917,221.316,217.117,223.397,217.117,226.458z M208.294,226.458c0,2.301,1.561,3.82,3.741,3.82c2.221,0,3.74-1.52,3.74-3.82
	c0-2.28-1.54-3.921-3.74-3.921C209.834,222.537,208.294,224.177,208.294,226.458z"/>
<path fill="#5E5F65" d="M222.055,221.497l0.079,1.62c0.64-1.32,1.96-1.78,3.142-1.78c0.899,0,1.52,0.2,2.24,0.7l-0.621,1.12
	c-0.5-0.34-1.06-0.521-1.699-0.521c-1.701,0.021-3.062,1.32-3.062,3.121v5.621h-1.34v-9.882H222.055z"/>
<path fill="#5E5F65" d="M236.795,223.517c-0.92-0.841-1.861-1.001-2.921-1.001c-1.44-0.02-2.721,0.501-2.681,1.601
	c0.02,1.16,1.461,1.44,2.701,1.62c1.779,0.261,4.08,0.561,4.08,2.961c-0.039,2.08-2.061,2.881-4.061,2.881
	c-1.7,0-3.381-0.561-4.381-1.921l0.84-0.92c0.84,1.141,2.301,1.58,3.561,1.601c1.121,0,2.701-0.32,2.701-1.66
	c0-1.301-1.28-1.541-2.861-1.761c-1.9-0.28-3.881-0.72-3.9-2.761c0-2.021,2.041-2.881,3.98-2.86c1.48,0,2.701,0.4,3.721,1.34
	L236.795,223.517z"/>
<path fill="#5E5F65" d="M242.274,226.998c0.18,2.061,1.781,3.28,3.741,3.28c1.2,0,2.64-0.479,3.341-1.36l0.9,0.801
	c-0.98,1.22-2.682,1.84-4.241,1.84c-2.94,0-5.121-1.98-5.121-5.141c0-2.961,2.12-5.102,5.062-5.102c2.939,0,5.301,1.78,4.92,5.682
	H242.274z M249.616,225.857c-0.04-2.16-1.66-3.341-3.641-3.341s-3.441,1.2-3.701,3.341H249.616z"/>
<path fill="#5E5F65" d="M163.278,403.772c-0.82-1.32-2.541-1.761-4.021-1.78c-1.721,0-3.94,0.5-3.94,2.561
	c0,1.64,1.8,2.08,3.98,2.46c2.76,0.48,5.561,1.101,5.561,4.081c-0.02,3.161-3.061,4.021-5.601,4.021
	c-2.36,0-4.761-0.859-5.841-3.101l1.22-0.66c0.96,1.801,2.921,2.421,4.621,2.421c1.72,0,4.181-0.46,4.181-2.701
	c0.02-1.9-2.101-2.38-4.281-2.76c-2.641-0.461-5.24-1.041-5.24-3.761c-0.041-2.941,2.96-3.881,5.32-3.881
	c1.921,0,3.98,0.52,5.221,2.44L163.278,403.772z"/>
<path fill="#5E5F65" d="M176.698,413.554c-1.041,1.02-2.321,1.5-3.661,1.5c-2.801,0-5.121-1.881-5.121-5.102
	c0-3.2,2.261-5.081,5.121-5.081c1.319,0,2.48,0.46,3.501,1.461l-0.881,0.86c-0.74-0.721-1.641-1.061-2.6-1.061
	c-2.102,0-3.802,1.4-3.802,3.82c0,2.48,1.721,3.821,3.781,3.821c1,0,2-0.38,2.74-1.12L176.698,413.554z"/>
<path fill="#5E5F65" d="M181.715,401.912c0,1.26-1.9,1.26-1.9,0C179.815,400.651,181.715,400.651,181.715,401.912z M180.076,404.972
	v9.922h1.34v-9.922H180.076z"/>
<path fill="#5E5F65" d="M194.038,405.012h1.26c0,3.301,0,6.581,0,9.882h-1.24v-1.96c-0.86,1.46-2.441,2.16-3.921,2.16
	c-2.801,0-5.041-2.001-5.041-5.142c0-3.12,2.261-5.081,5.062-5.081c1.52,0,3.141,0.7,3.881,2.101V405.012z M186.435,409.953
	c0,2.341,1.681,3.881,3.761,3.881c5.102,0,5.102-7.741,0-7.741C188.116,406.092,186.435,407.632,186.435,409.953z"/>
<path fill="#5E5F65" d="M202.116,402.091v2.94h3.2v1.141h-3.2v5.581c0,1.24,0.34,2.061,1.68,2.061c0.46,0,0.961-0.16,1.44-0.38
	l0.42,1.12c-0.64,0.3-1.261,0.479-1.9,0.479c-2.12,0.021-2.98-1.22-2.98-3.28v-5.581h-2.021v-1.141h2.021v-2.801L202.116,402.091z"
	/>
<path fill="#5E5F65" d="M210.295,401.912c0,1.26-1.9,1.26-1.9,0C208.395,400.651,210.295,400.651,210.295,401.912z M208.655,404.972
	v9.922h1.34v-9.922H208.655z"/>
<path fill="#5E5F65" d="M222.577,419.615v-6.721c-0.801,1.5-2.361,2.2-3.881,2.2c-2.881,0-5.002-1.921-5.002-5.142
	c0-3.101,2.08-5.021,4.861-5.101c1.721,0,3.24,0.86,4.001,2.261l0.04-2.101h1.301v14.603H222.577z M222.456,409.973
	c0-2.2-1.52-3.821-3.7-3.821c-2.12,0-3.722,1.341-3.722,3.801c0,2.48,1.641,3.841,3.722,3.841
	C220.875,413.793,222.456,412.173,222.456,409.973z"/>
<path fill="#5E5F65" d="M229.415,405.012v5.541c0,2.061,1.24,3.24,3.24,3.221c1.9,0,3.241-1.48,3.241-3.381v-5.381h1.319v9.882
	h-1.24l-0.039-1.66c-0.82,1.26-2.121,1.8-3.501,1.82c-2.561,0-4.36-1.66-4.36-4.481v-5.561H229.415z"/>
<path fill="#5E5F65" d="M242.274,410.513c0.18,2.061,1.781,3.28,3.741,3.28c1.2,0,2.64-0.479,3.341-1.36l0.9,0.801
	c-0.98,1.22-2.682,1.84-4.241,1.84c-2.94,0-5.121-1.98-5.121-5.141c0-2.961,2.12-5.102,5.062-5.102c2.939,0,5.301,1.78,4.92,5.682
	H242.274z M249.616,409.373c-0.04-2.16-1.66-3.341-3.641-3.341s-3.441,1.2-3.701,3.341H249.616z"/>
<path fill="#5E5F65" d="M173.455,525.002V511h9.582v1.32h-8.182v5.32h7.882v1.32h-7.882v6.041H173.455z"/>
<path fill="#5E5F65" d="M196.077,520.083c0,3.061-2.16,5.08-5.081,5.08c-2.881,0-5.081-2.02-5.081-5.08s2.12-5.143,5.081-5.143
	C193.875,514.94,196.077,517.022,196.077,520.083z M187.254,520.083c0,2.301,1.561,3.82,3.741,3.82c2.22,0,3.741-1.52,3.741-3.82
	c0-2.281-1.541-3.922-3.741-3.922S187.254,517.801,187.254,520.083z"/>
<path fill="#5E5F65" d="M200.955,515.122v5.541c0,2.061,1.24,3.24,3.241,3.221c1.9,0,3.24-1.48,3.24-3.381v-5.381h1.32v9.881h-1.24
	l-0.04-1.66c-0.82,1.26-2.12,1.801-3.501,1.82c-2.561,0-4.361-1.66-4.361-4.48v-5.561H200.955z"/>
<path fill="#5E5F65" d="M214.554,511v14.002h-1.341V511H214.554z"/>
<path fill="#5E5F65" d="M220.214,515.122v5.541c0,2.061,1.24,3.24,3.241,3.221c1.9,0,3.24-1.48,3.24-3.381v-5.381h1.32v9.881h-1.24
	l-0.04-1.66c-0.82,1.26-2.12,1.801-3.501,1.82c-2.561,0-4.361-1.66-4.361-4.48v-5.561H220.214z"/>
<path fill="#5E5F65" d="M233.594,515.122l0.079,1.619c0.64-1.32,1.96-1.779,3.142-1.779c0.899,0,1.52,0.199,2.24,0.699l-0.621,1.121
	c-0.5-0.34-1.06-0.521-1.699-0.521c-1.701,0.021-3.062,1.32-3.062,3.121v5.621h-1.34v-9.881H233.594z"/>
<path fill="#5E5F65" d="M242.274,520.622c0.18,2.061,1.78,3.281,3.74,3.281c1.201,0,2.641-0.48,3.341-1.361l0.9,0.801
	c-0.98,1.221-2.681,1.84-4.241,1.84c-2.94,0-5.121-1.98-5.121-5.141c0-2.961,2.121-5.102,5.062-5.102s5.301,1.781,4.921,5.682
	H242.274z M249.616,519.481c-0.041-2.16-1.66-3.34-3.641-3.34s-3.441,1.199-3.701,3.34H249.616z"/>
<path fill="#5E5F65" d="M157.958,547.704c4.74,0,7.021,3.4,7.021,6.861c0,3.541-2.121,7.142-7.021,7.142c-1.621,0-3.321,0-4.941,0
	v-14.003H157.958z M154.417,560.407h3.541c3.9,0,5.66-3.041,5.601-5.861c-0.06-2.721-1.82-5.521-5.601-5.521h-3.541V560.407z"/>
<path fill="#5E5F65" d="M178.217,556.786c0,3.061-2.16,5.081-5.08,5.081c-2.881,0-5.082-2.021-5.082-5.081s2.121-5.142,5.082-5.142
	C176.017,551.644,178.217,553.725,178.217,556.786z M169.395,556.786c0,2.301,1.561,3.82,3.742,3.82c2.22,0,3.74-1.52,3.74-3.82
	c0-2.28-1.541-3.921-3.74-3.921C170.936,552.865,169.395,554.505,169.395,556.786z"/>
<path fill="#5E5F65" d="M183.156,551.825l0.079,1.62c0.641-1.32,1.961-1.78,3.142-1.78c0.899,0,1.521,0.2,2.24,0.7l-0.62,1.12
	c-0.5-0.34-1.061-0.521-1.7-0.521c-1.7,0.021-3.062,1.32-3.062,3.121v5.621h-1.34v-9.882H183.156z"/>
<path fill="#5E5F65" d="M197.897,553.845c-0.92-0.841-1.861-1.001-2.921-1.001c-1.44-0.02-2.721,0.501-2.681,1.601
	c0.02,1.16,1.461,1.44,2.701,1.62c1.779,0.261,4.08,0.561,4.08,2.961c-0.039,2.08-2.061,2.881-4.061,2.881
	c-1.7,0-3.381-0.561-4.381-1.921l0.84-0.92c0.84,1.141,2.301,1.58,3.561,1.601c1.121,0,2.701-0.32,2.701-1.66
	c0-1.301-1.28-1.541-2.861-1.761c-1.9-0.28-3.881-0.72-3.9-2.761c0-2.021,2.041-2.881,3.98-2.86c1.48,0,2.701,0.4,3.721,1.34
	L197.897,553.845z"/>
<path fill="#5E5F65" d="M210.937,551.825h1.261c0,3.301,0,6.581,0,9.882h-1.24v-1.96c-0.861,1.46-2.441,2.16-3.922,2.16
	c-2.801,0-5.041-2.001-5.041-5.142c0-3.12,2.261-5.081,5.062-5.081c1.521,0,3.141,0.7,3.881,2.101V551.825z M203.334,556.765
	c0,2.341,1.682,3.881,3.762,3.881c5.102,0,5.102-7.741,0-7.741C205.016,552.905,203.334,554.445,203.334,556.765z"/>
<path fill="#5E5F65" d="M217.995,547.704v14.003h-1.34v-14.003H217.995z"/>
<path fill="#5E5F65" d="M230.976,551.144l0.921,0.761l-1.061,1.26c0.74,0.82,1.32,1.7,1.32,3.281c0,1.74-0.961,3.561-2.98,4.141
	c1.859,0.5,2.92,1.601,2.92,3.24c0,2.48-2.461,3.761-5.081,3.761c-2.82,0-5.021-1.5-5.001-4.08h1.34
	c-0.02,1.86,1.781,2.78,3.661,2.78c1.821,0,3.722-0.7,3.722-2.461c0-1.74-1.881-2.521-3.722-2.521c-3.04,0-5.181-1.78-5.181-4.86
	c0-3.221,2.7-4.861,5.181-4.861c0.94,0,2.181,0.28,2.921,0.8L230.976,551.144z M223.194,556.446c0,2.44,1.682,3.62,3.821,3.62
	c2.28,0,3.801-1.66,3.801-3.62c0-2.461-1.86-3.602-3.801-3.602C225.195,552.844,223.194,553.965,223.194,556.446z"/>
<path fill="#5E5F65" d="M237.514,548.724c0,1.26-1.9,1.26-1.9,0C235.614,547.463,237.514,547.463,237.514,548.724z M235.875,551.785
	v9.922h1.34v-9.922H235.875z"/>
<path fill="#5E5F65" d="M242.274,557.326c0.18,2.061,1.781,3.28,3.741,3.28c1.2,0,2.64-0.479,3.341-1.36l0.9,0.801
	c-0.98,1.22-2.682,1.84-4.241,1.84c-2.94,0-5.121-1.98-5.121-5.141c0-2.961,2.12-5.102,5.062-5.102c2.939,0,5.301,1.78,4.92,5.682
	H242.274z M249.616,556.185c-0.04-2.16-1.66-3.341-3.641-3.341s-3.441,1.2-3.701,3.341H249.616z"/>
<path fill="#5E5F65" d="M145.156,584.407v12.683h7.782v1.32h-9.183v-14.003H145.156z"/>
<path fill="#5E5F65" d="M165.278,593.489c0,3.061-2.161,5.081-5.082,5.081c-2.881,0-5.08-2.021-5.08-5.081s2.119-5.142,5.08-5.142
	C163.077,588.347,165.278,590.428,165.278,593.489z M156.456,593.489c0,2.301,1.561,3.82,3.74,3.82c2.221,0,3.741-1.52,3.741-3.82
	c0-2.28-1.54-3.921-3.741-3.921C157.996,589.568,156.456,591.208,156.456,593.489z"/>
<path fill="#5E5F65" d="M176.096,598.41v-5.722c0-1.74-1.16-3.08-2.9-3.08s-2.9,1.34-2.9,3.08v5.722h-1.34v-9.882h1.26l0.06,1.54
	c0.641-1.24,1.86-1.721,3.062-1.721c1.42,0,2.9,0.62,3.48,2.281c0.66-1.561,2.1-2.281,3.561-2.281c2.521,0,4.16,1.701,4.16,4.302
	v5.761h-1.34v-5.761c0-1.761-1.1-3.041-2.84-3.041c-1.741,0-2.922,1.34-2.922,3.08v5.722H176.096z"/>
<path fill="#5E5F65" d="M190.075,584.407v6.081c0.74-1.46,2.341-2.141,3.881-2.141c2.781,0,4.981,1.82,4.981,5.121
	c0,3.281-2.181,5.121-4.981,5.121c-1.561,0-2.961-0.52-3.881-2.08l-0.08,1.9h-1.26v-14.003H190.075z M190.115,593.449
	c0,2.301,1.62,3.86,3.761,3.86c2.041,0,3.721-1.36,3.721-3.841c0-2.521-1.68-3.841-3.721-3.841
	C191.776,589.627,190.115,591.188,190.115,593.449z"/>
<path fill="#5E5F65" d="M210.936,588.528h1.26c0,3.301,0,6.581,0,9.882h-1.24v-1.96c-0.859,1.46-2.44,2.16-3.92,2.16
	c-2.801,0-5.041-2.001-5.041-5.142c0-3.12,2.26-5.081,5.061-5.081c1.52,0,3.141,0.7,3.881,2.101V588.528z M203.334,593.468
	c0,2.341,1.68,3.881,3.761,3.881c5.101,0,5.101-7.741,0-7.741C205.014,589.608,203.334,591.148,203.334,593.468z"/>
<path fill="#5E5F65" d="M217.995,584.407v14.003h-1.341v-14.003H217.995z"/>
<path fill="#5E5F65" d="M230.975,587.847l0.921,0.761l-1.061,1.26c0.74,0.82,1.32,1.7,1.32,3.281c0,1.74-0.96,3.561-2.98,4.141
	c1.86,0.5,2.921,1.601,2.921,3.24c0,2.48-2.461,3.761-5.082,3.761c-2.82,0-5.021-1.5-5-4.08h1.34c-0.02,1.86,1.78,2.78,3.66,2.78
	c1.821,0,3.722-0.7,3.722-2.461c0-1.74-1.88-2.521-3.722-2.521c-3.04,0-5.18-1.78-5.18-4.86c0-3.221,2.699-4.861,5.18-4.861
	c0.941,0,2.182,0.28,2.922,0.8L230.975,587.847z M223.194,593.149c0,2.44,1.681,3.62,3.82,3.62c2.281,0,3.802-1.66,3.802-3.62
	c0-2.461-1.86-3.602-3.802-3.602C225.194,589.547,223.194,590.668,223.194,593.149z"/>
<path fill="#5E5F65" d="M237.514,585.427c0,1.26-1.9,1.26-1.9,0C235.614,584.167,237.514,584.167,237.514,585.427z M235.874,588.488
	v9.922h1.34v-9.922H235.874z"/>
<path fill="#5E5F65" d="M242.273,594.029c0.181,2.061,1.78,3.28,3.741,3.28c1.2,0,2.641-0.479,3.34-1.36l0.9,0.801
	c-0.98,1.22-2.68,1.84-4.24,1.84c-2.941,0-5.121-1.98-5.121-5.141c0-2.961,2.12-5.102,5.061-5.102c2.941,0,5.301,1.78,4.922,5.682
	H242.273z M249.615,592.888c-0.04-2.16-1.66-3.341-3.641-3.341s-3.44,1.2-3.701,3.341H249.615z"/>
<path fill="#5E5F65" d="M179.577,631.873h-8.121l-1.44,3.24h-1.48l6.282-14.003h1.399l6.282,14.003h-1.48L179.577,631.873z
	 M172.016,630.592h7.001l-3.501-7.962L172.016,630.592z"/>
<path fill="#5E5F65" d="M186.935,625.231l0.079,1.62c0.641-1.32,1.961-1.78,3.142-1.78c0.899,0,1.521,0.2,2.24,0.7l-0.62,1.12
	c-0.5-0.34-1.061-0.521-1.7-0.521c-1.7,0.021-3.062,1.32-3.062,3.121v5.621h-1.34v-9.882H186.935z"/>
<path fill="#5E5F65" d="M197.735,622.31v2.94h3.201v1.141h-3.201v5.581c0,1.24,0.34,2.061,1.681,2.061c0.46,0,0.96-0.16,1.44-0.38
	l0.42,1.12c-0.641,0.3-1.26,0.479-1.9,0.479c-2.121,0.021-2.98-1.22-2.98-3.28v-5.581h-2.021v-1.141h2.021v-2.801L197.735,622.31z"
	/>
<path fill="#5E5F65" d="M205.594,621.11v5.841c0.82-1.34,2.121-1.84,3.441-1.86c2.761,0,4.121,1.82,4.121,4.481v5.541h-1.34v-5.541
	c0-1.98-0.961-3.201-2.941-3.201c-1.92,0-3.261,1.501-3.261,3.421v5.321h-1.34V621.11H205.594z"/>
<path fill="#5E5F65" d="M218.615,625.231l0.079,1.62c0.641-1.32,1.961-1.78,3.142-1.78c0.899,0,1.521,0.2,2.24,0.7l-0.62,1.12
	c-0.5-0.34-1.061-0.521-1.7-0.521c-1.7,0.021-3.062,1.32-3.062,3.121v5.621h-1.34v-9.882H218.615z"/>
<path fill="#5E5F65" d="M228.555,622.13c0,1.26-1.9,1.26-1.9,0C226.655,620.87,228.555,620.87,228.555,622.13z M226.915,625.191
	v9.922h1.34v-9.922H226.915z"/>
<path fill="#5E5F65" d="M235.075,622.31v2.94h3.201v1.141h-3.201v5.581c0,1.24,0.34,2.061,1.68,2.061c0.461,0,0.961-0.16,1.441-0.38
	l0.42,1.12c-0.641,0.3-1.261,0.479-1.9,0.479c-2.121,0.021-2.98-1.22-2.98-3.28v-5.581h-2.021v-1.141h2.021v-2.801L235.075,622.31z"
	/>
<path fill="#5E5F65" d="M242.274,630.732c0.18,2.061,1.781,3.28,3.741,3.28c1.2,0,2.64-0.479,3.341-1.36l0.9,0.801
	c-0.98,1.22-2.682,1.84-4.241,1.84c-2.94,0-5.121-1.98-5.121-5.141c0-2.961,2.12-5.102,5.062-5.102c2.939,0,5.301,1.78,4.92,5.682
	H242.274z M249.616,629.591c-0.04-2.16-1.66-3.341-3.641-3.341s-3.441,1.2-3.701,3.341H249.616z"/>
<path fill="#5E5F65" d="M173.455,14.003V0h9.582v1.32h-8.182v5.321h7.882v1.32h-7.882v6.041H173.455z"/>
<path fill="#5E5F65" d="M196.077,9.082c0,3.061-2.16,5.081-5.081,5.081c-2.881,0-5.081-2.021-5.081-5.081s2.12-5.142,5.081-5.142
	C193.875,3.94,196.077,6.021,196.077,9.082z M187.254,9.082c0,2.301,1.561,3.82,3.741,3.82c2.22,0,3.741-1.52,3.741-3.82
	c0-2.28-1.541-3.921-3.741-3.921S187.254,6.802,187.254,9.082z"/>
<path fill="#5E5F65" d="M200.955,4.121v5.541c0,2.061,1.24,3.24,3.241,3.221c1.9,0,3.24-1.48,3.24-3.381V4.121h1.32v9.882h-1.24
	l-0.04-1.66c-0.82,1.26-2.12,1.8-3.501,1.82c-2.561,0-4.361-1.66-4.361-4.481V4.121H200.955z"/>
<path fill="#5E5F65" d="M214.554,0v14.003h-1.341V0H214.554z"/>
<path fill="#5E5F65" d="M220.214,4.121v5.541c0,2.061,1.24,3.24,3.241,3.221c1.9,0,3.24-1.48,3.24-3.381V4.121h1.32v9.882h-1.24
	l-0.04-1.66c-0.82,1.26-2.12,1.8-3.501,1.82c-2.561,0-4.361-1.66-4.361-4.481V4.121H220.214z"/>
<path fill="#5E5F65" d="M233.594,4.121l0.079,1.62c0.64-1.32,1.96-1.78,3.142-1.78c0.899,0,1.52,0.2,2.24,0.7l-0.621,1.12
	c-0.5-0.34-1.06-0.521-1.699-0.521c-1.701,0.021-3.062,1.32-3.062,3.121v5.621h-1.34V4.121H233.594z"/>
<path fill="#5E5F65" d="M242.274,9.622c0.18,2.061,1.78,3.28,3.74,3.28c1.201,0,2.641-0.479,3.341-1.36l0.9,0.801
	c-0.98,1.22-2.681,1.84-4.241,1.84c-2.94,0-5.121-1.98-5.121-5.141c0-2.961,2.121-5.102,5.062-5.102s5.301,1.78,4.921,5.682H242.274
	z M249.616,8.481c-0.041-2.16-1.66-3.341-3.641-3.341s-3.441,1.2-3.701,3.341H249.616z"/>
<path fill="#5E5F65" d="M157.958,36.704c4.74,0,7.021,3.4,7.021,6.861c0,3.541-2.121,7.142-7.021,7.142c-1.621,0-3.321,0-4.941,0
	V36.704H157.958z M154.417,49.407h3.541c3.9,0,5.66-3.041,5.601-5.861c-0.06-2.721-1.82-5.521-5.601-5.521h-3.541V49.407z"/>
<path fill="#5E5F65" d="M178.217,45.786c0,3.061-2.16,5.081-5.08,5.081c-2.881,0-5.082-2.021-5.082-5.081s2.121-5.142,5.082-5.142
	C176.017,40.644,178.217,42.725,178.217,45.786z M169.395,45.786c0,2.301,1.561,3.82,3.742,3.82c2.22,0,3.74-1.52,3.74-3.82
	c0-2.28-1.541-3.921-3.74-3.921C170.936,41.865,169.395,43.505,169.395,45.786z"/>
<path fill="#5E5F65" d="M183.156,40.825l0.079,1.62c0.641-1.32,1.961-1.78,3.142-1.78c0.899,0,1.521,0.2,2.24,0.7l-0.62,1.12
	c-0.5-0.34-1.061-0.521-1.7-0.521c-1.7,0.021-3.062,1.32-3.062,3.121v5.621h-1.34v-9.882H183.156z"/>
<path fill="#5E5F65" d="M197.897,42.845c-0.92-0.841-1.861-1.001-2.921-1.001c-1.44-0.02-2.721,0.501-2.681,1.601
	c0.02,1.16,1.461,1.44,2.701,1.62c1.779,0.261,4.08,0.561,4.08,2.961c-0.039,2.08-2.061,2.881-4.061,2.881
	c-1.7,0-3.381-0.561-4.381-1.921l0.84-0.92c0.84,1.141,2.301,1.58,3.561,1.601c1.121,0,2.701-0.32,2.701-1.66
	c0-1.301-1.28-1.541-2.861-1.761c-1.9-0.28-3.881-0.72-3.9-2.761c0-2.021,2.041-2.881,3.98-2.86c1.48,0,2.701,0.4,3.721,1.34
	L197.897,42.845z"/>
<path fill="#5E5F65" d="M210.937,40.825h1.261c0,3.301,0,6.581,0,9.882h-1.24v-1.96c-0.861,1.46-2.441,2.16-3.922,2.16
	c-2.801,0-5.041-2.001-5.041-5.142c0-3.12,2.261-5.081,5.062-5.081c1.521,0,3.141,0.7,3.881,2.101V40.825z M203.334,45.765
	c0,2.341,1.682,3.881,3.762,3.881c5.102,0,5.102-7.741,0-7.741C205.016,41.905,203.334,43.445,203.334,45.765z"/>
<path fill="#5E5F65" d="M217.995,36.704v14.003h-1.34V36.704H217.995z"/>
<path fill="#5E5F65" d="M230.976,40.144l0.921,0.761l-1.061,1.26c0.74,0.82,1.32,1.7,1.32,3.281c0,1.74-0.961,3.561-2.98,4.141
	c1.859,0.5,2.92,1.601,2.92,3.24c0,2.48-2.461,3.761-5.081,3.761c-2.82,0-5.021-1.5-5.001-4.08h1.34
	c-0.02,1.86,1.781,2.78,3.661,2.78c1.821,0,3.722-0.7,3.722-2.461c0-1.74-1.881-2.521-3.722-2.521c-3.04,0-5.181-1.78-5.181-4.86
	c0-3.221,2.7-4.861,5.181-4.861c0.94,0,2.181,0.28,2.921,0.8L230.976,40.144z M223.194,45.446c0,2.44,1.682,3.62,3.821,3.62
	c2.28,0,3.801-1.66,3.801-3.62c0-2.461-1.86-3.602-3.801-3.602C225.195,41.844,223.194,42.965,223.194,45.446z"/>
<path fill="#5E5F65" d="M237.514,37.724c0,1.26-1.9,1.26-1.9,0C235.614,36.463,237.514,36.463,237.514,37.724z M235.875,40.785
	v9.922h1.34v-9.922H235.875z"/>
<path fill="#5E5F65" d="M242.274,46.326c0.18,2.061,1.781,3.28,3.741,3.28c1.2,0,2.64-0.479,3.341-1.36l0.9,0.801
	c-0.98,1.22-2.682,1.84-4.241,1.84c-2.94,0-5.121-1.98-5.121-5.141c0-2.961,2.12-5.102,5.062-5.102c2.939,0,5.301,1.78,4.92,5.682
	H242.274z M249.616,45.185c-0.04-2.16-1.66-3.341-3.641-3.341s-3.441,1.2-3.701,3.341H249.616z"/>
<path fill="#5E5F65" d="M145.156,73.407v12.683h7.782v1.32h-9.183V73.407H145.156z"/>
<path fill="#5E5F65" d="M165.278,82.489c0,3.061-2.161,5.081-5.082,5.081c-2.881,0-5.08-2.021-5.08-5.081s2.119-5.142,5.08-5.142
	C163.077,77.347,165.278,79.428,165.278,82.489z M156.456,82.489c0,2.301,1.561,3.82,3.74,3.82c2.221,0,3.741-1.52,3.741-3.82
	c0-2.28-1.54-3.921-3.741-3.921C157.996,78.568,156.456,80.208,156.456,82.489z"/>
<path fill="#5E5F65" d="M176.096,87.41v-5.722c0-1.74-1.16-3.08-2.9-3.08s-2.9,1.34-2.9,3.08v5.722h-1.34v-9.882h1.26l0.06,1.54
	c0.641-1.24,1.86-1.721,3.062-1.721c1.42,0,2.9,0.62,3.48,2.281c0.66-1.561,2.1-2.281,3.561-2.281c2.521,0,4.16,1.701,4.16,4.302
	v5.761h-1.34v-5.761c0-1.761-1.1-3.041-2.84-3.041c-1.741,0-2.922,1.34-2.922,3.08v5.722H176.096z"/>
<path fill="#5E5F65" d="M190.075,73.407v6.081c0.74-1.46,2.341-2.141,3.881-2.141c2.781,0,4.981,1.82,4.981,5.121
	c0,3.281-2.181,5.121-4.981,5.121c-1.561,0-2.961-0.52-3.881-2.08l-0.08,1.9h-1.26V73.407H190.075z M190.115,82.449
	c0,2.301,1.62,3.86,3.761,3.86c2.041,0,3.721-1.36,3.721-3.841c0-2.521-1.68-3.841-3.721-3.841
	C191.776,78.627,190.115,80.188,190.115,82.449z"/>
<path fill="#5E5F65" d="M210.936,77.528h1.26c0,3.301,0,6.581,0,9.882h-1.24v-1.96c-0.859,1.46-2.44,2.16-3.92,2.16
	c-2.801,0-5.041-2.001-5.041-5.142c0-3.12,2.26-5.081,5.061-5.081c1.52,0,3.141,0.7,3.881,2.101V77.528z M203.334,82.468
	c0,2.341,1.68,3.881,3.761,3.881c5.101,0,5.101-7.741,0-7.741C205.014,78.608,203.334,80.148,203.334,82.468z"/>
<path fill="#5E5F65" d="M217.995,73.407V87.41h-1.341V73.407H217.995z"/>
<path fill="#5E5F65" d="M230.975,76.847l0.921,0.761l-1.061,1.26c0.74,0.82,1.32,1.7,1.32,3.281c0,1.74-0.96,3.561-2.98,4.141
	c1.86,0.5,2.921,1.601,2.921,3.24c0,2.48-2.461,3.761-5.082,3.761c-2.82,0-5.021-1.5-5-4.08h1.34c-0.02,1.86,1.78,2.78,3.66,2.78
	c1.821,0,3.722-0.7,3.722-2.461c0-1.74-1.88-2.521-3.722-2.521c-3.04,0-5.18-1.78-5.18-4.86c0-3.221,2.699-4.861,5.18-4.861
	c0.941,0,2.182,0.28,2.922,0.8L230.975,76.847z M223.194,82.149c0,2.44,1.681,3.62,3.82,3.62c2.281,0,3.802-1.66,3.802-3.62
	c0-2.461-1.86-3.602-3.802-3.602C225.194,78.547,223.194,79.668,223.194,82.149z"/>
<path fill="#5E5F65" d="M237.514,74.427c0,1.26-1.9,1.26-1.9,0C235.614,73.167,237.514,73.167,237.514,74.427z M235.874,77.488
	v9.922h1.34v-9.922H235.874z"/>
<path fill="#5E5F65" d="M242.273,83.029c0.181,2.061,1.78,3.28,3.741,3.28c1.2,0,2.641-0.479,3.34-1.36l0.9,0.801
	c-0.98,1.22-2.68,1.84-4.24,1.84c-2.941,0-5.121-1.98-5.121-5.141c0-2.961,2.12-5.102,5.061-5.102c2.941,0,5.301,1.78,4.922,5.682
	H242.273z M249.615,81.888c-0.04-2.16-1.66-3.341-3.641-3.341s-3.44,1.2-3.701,3.341H249.615z"/>
<path fill="#5E5F65" d="M179.577,120.873h-8.121l-1.44,3.24h-1.48l6.282-14.003h1.399l6.282,14.003h-1.48L179.577,120.873z
	 M172.016,119.592h7.001l-3.501-7.962L172.016,119.592z"/>
<path fill="#5E5F65" d="M186.935,114.231l0.079,1.62c0.641-1.32,1.961-1.78,3.142-1.78c0.899,0,1.521,0.2,2.24,0.7l-0.62,1.12
	c-0.5-0.34-1.061-0.521-1.7-0.521c-1.7,0.021-3.062,1.32-3.062,3.121v5.621h-1.34v-9.882H186.935z"/>
<path fill="#5E5F65" d="M197.735,111.31v2.94h3.201v1.141h-3.201v5.581c0,1.24,0.34,2.061,1.681,2.061c0.46,0,0.96-0.16,1.44-0.38
	l0.42,1.12c-0.641,0.3-1.26,0.479-1.9,0.479c-2.121,0.021-2.98-1.22-2.98-3.28v-5.581h-2.021v-1.141h2.021v-2.801L197.735,111.31z"
	/>
<path fill="#5E5F65" d="M205.594,110.11v5.841c0.82-1.34,2.121-1.84,3.441-1.86c2.761,0,4.121,1.82,4.121,4.481v5.541h-1.34v-5.541
	c0-1.98-0.961-3.201-2.941-3.201c-1.92,0-3.261,1.501-3.261,3.421v5.321h-1.34V110.11H205.594z"/>
<path fill="#5E5F65" d="M218.615,114.231l0.079,1.62c0.641-1.32,1.961-1.78,3.142-1.78c0.899,0,1.521,0.2,2.24,0.7l-0.62,1.12
	c-0.5-0.34-1.061-0.521-1.7-0.521c-1.7,0.021-3.062,1.32-3.062,3.121v5.621h-1.34v-9.882H218.615z"/>
<path fill="#5E5F65" d="M228.555,111.13c0,1.26-1.9,1.26-1.9,0C226.655,109.87,228.555,109.87,228.555,111.13z M226.915,114.191
	v9.922h1.34v-9.922H226.915z"/>
<path fill="#5E5F65" d="M235.075,111.31v2.94h3.201v1.141h-3.201v5.581c0,1.24,0.34,2.061,1.68,2.061c0.461,0,0.961-0.16,1.441-0.38
	l0.42,1.12c-0.641,0.3-1.261,0.479-1.9,0.479c-2.121,0.021-2.98-1.22-2.98-3.28v-5.581h-2.021v-1.141h2.021v-2.801L235.075,111.31z"
	/>
<path fill="#5E5F65" d="M242.274,119.732c0.18,2.061,1.781,3.28,3.741,3.28c1.2,0,2.64-0.479,3.341-1.36l0.9,0.801
	c-0.98,1.22-2.682,1.84-4.241,1.84c-2.94,0-5.121-1.98-5.121-5.141c0-2.961,2.12-5.102,5.062-5.102c2.939,0,5.301,1.78,4.92,5.682
	H242.274z M249.616,118.591c-0.04-2.16-1.66-3.341-3.641-3.341s-3.441,1.2-3.701,3.341H249.616z"/>
<path fill="#5E5F65" d="M202.897,664.854c-0.02,3.661-2.34,7.222-7.081,7.222c-4.761,0-7.102-3.561-7.102-7.241
	c0-3.94,2.561-7.262,7.102-7.262C200.557,657.593,202.917,661.114,202.897,664.854z M195.816,670.755c3.821,0,5.661-2.9,5.681-5.901
	c0-3.141-1.859-5.94-5.681-5.961c-3.761,0-5.741,2.661-5.701,5.961C190.155,667.916,191.995,670.755,195.816,670.755z"/>
<path fill="#5E5F65" d="M209.195,659.013v2.94h3.2v1.141h-3.2v5.581c0,1.24,0.34,2.061,1.681,2.061c0.459,0,0.96-0.16,1.439-0.38
	l0.42,1.12c-0.64,0.3-1.26,0.479-1.9,0.479c-2.12,0.021-2.98-1.22-2.98-3.28v-5.581h-2.02v-1.141h2.02v-2.801L209.195,659.013z"/>
<path fill="#5E5F65" d="M217.375,658.833c0,1.26-1.9,1.26-1.9,0C215.474,657.573,217.375,657.573,217.375,658.833z M215.735,661.894
	v9.922h1.34v-9.922H215.735z"/>
<path fill="#5E5F65" d="M223.895,659.013v2.94h3.2v1.141h-3.2v5.581c0,1.24,0.34,2.061,1.68,2.061c0.46,0,0.961-0.16,1.44-0.38
	l0.42,1.12c-0.64,0.3-1.261,0.479-1.9,0.479c-2.12,0.021-2.98-1.22-2.98-3.28v-5.581h-2.021v-1.141h2.021v-2.801L223.895,659.013z"
	/>
<path fill="#5E5F65" d="M231.094,667.435c0.18,2.061,1.78,3.28,3.74,3.28c1.201,0,2.641-0.479,3.341-1.36l0.9,0.801
	c-0.98,1.22-2.681,1.84-4.241,1.84c-2.94,0-5.121-1.98-5.121-5.141c0-2.961,2.121-5.102,5.062-5.102s5.301,1.78,4.921,5.682H231.094
	z M238.436,666.294c-0.041-2.16-1.66-3.341-3.641-3.341s-3.441,1.2-3.701,3.341H238.436z"/>
<path fill="#5E5F65" d="M249.715,663.955c-0.92-0.841-1.861-1.001-2.921-1.001c-1.44-0.02-2.721,0.501-2.681,1.601
	c0.02,1.16,1.461,1.44,2.701,1.62c1.779,0.261,4.08,0.561,4.08,2.961c-0.039,2.08-2.061,2.881-4.061,2.881
	c-1.7,0-3.381-0.561-4.381-1.921l0.84-0.92c0.84,1.141,2.301,1.58,3.561,1.601c1.121,0,2.701-0.32,2.701-1.66
	c0-1.301-1.28-1.541-2.861-1.761c-1.9-0.28-3.881-0.72-3.9-2.761c0-2.021,2.041-2.881,3.98-2.86c1.48,0,2.701,0.4,3.721,1.34
	L249.715,663.955z"/>
<path fill="#5E5F65" d="M144.738,705.279h-8.122l-1.439,3.24h-1.48l6.281-14.003h1.4l6.281,14.003h-1.48L144.738,705.279z
	 M137.176,703.999h7.002l-3.502-7.962L137.176,703.999z"/>
<path fill="#5E5F65" d="M158.618,707.179c-1.041,1.02-2.321,1.5-3.661,1.5c-2.801,0-5.121-1.881-5.121-5.102
	c0-3.2,2.261-5.081,5.121-5.081c1.319,0,2.48,0.46,3.501,1.461l-0.881,0.86c-0.74-0.721-1.641-1.061-2.6-1.061
	c-2.102,0-3.802,1.4-3.802,3.82c0,2.48,1.721,3.821,3.781,3.821c1,0,2-0.38,2.74-1.12L158.618,707.179z"/>
<path fill="#5E5F65" d="M171.278,703.598c0,3.061-2.161,5.081-5.082,5.081c-2.881,0-5.08-2.021-5.08-5.081s2.119-5.142,5.08-5.142
	C169.077,698.457,171.278,700.538,171.278,703.598z M162.456,703.598c0,2.301,1.561,3.82,3.74,3.82c2.221,0,3.741-1.52,3.741-3.82
	c0-2.28-1.54-3.921-3.741-3.921C163.996,699.677,162.456,701.318,162.456,703.598z"/>
<path fill="#5E5F65" d="M176.155,698.637v5.541c0,2.061,1.24,3.24,3.241,3.221c1.9,0,3.241-1.48,3.241-3.381v-5.381h1.32v9.882
	h-1.241l-0.04-1.66c-0.82,1.26-2.12,1.8-3.5,1.82c-2.561,0-4.361-1.66-4.361-4.481v-5.561H176.155z"/>
<path fill="#5E5F65" d="M188.275,713.24v-14.603h1.3l0.04,2.101c0.761-1.4,2.28-2.261,4.001-2.261c2.781,0.08,4.861,2,4.861,5.101
	c0,3.221-2.121,5.142-5.002,5.142c-1.52,0-3.08-0.7-3.881-2.2v6.721H188.275z M197.137,703.578c0-2.46-1.602-3.801-3.721-3.801
	c-2.182,0-3.701,1.621-3.701,3.821s1.58,3.82,3.701,3.82C195.497,707.418,197.137,706.058,197.137,703.578z"/>
<path fill="#5E5F65" d="M203.495,694.516v5.841c0.82-1.34,2.121-1.84,3.441-1.86c2.76,0,4.121,1.82,4.121,4.481v5.541h-1.341v-5.541
	c0-1.98-0.96-3.201-2.94-3.201c-1.921,0-3.262,1.501-3.262,3.421v5.321h-1.34v-14.003H203.495z"/>
<path fill="#5E5F65" d="M215.995,704.138c0.18,2.061,1.78,3.28,3.74,3.28c1.201,0,2.641-0.479,3.341-1.36l0.9,0.801
	c-0.98,1.22-2.681,1.84-4.241,1.84c-2.94,0-5.121-1.98-5.121-5.141c0-2.961,2.121-5.102,5.062-5.102s5.301,1.78,4.921,5.682H215.995
	z M223.336,702.998c-0.041-2.16-1.66-3.341-3.641-3.341s-3.441,1.2-3.701,3.341H223.336z M217.695,694.516h1.64l1.48,2.48v0.08
	h-1.26l-1.86-2.521V694.516z"/>
<path fill="#5E5F65" d="M235.975,708.519v-5.541c0-2.121-1.24-3.241-3.221-3.241c-1.92,0.021-3.24,1.501-3.24,3.401v5.381h-1.34
	v-9.882h1.28l0.04,1.66c0.82-1.261,2.1-1.82,3.44-1.82c2.561,0,4.401,1.521,4.401,4.48v5.562H235.975z"/>
<path fill="#5E5F65" d="M242.274,704.138c0.18,2.061,1.78,3.28,3.74,3.28c1.201,0,2.641-0.479,3.341-1.36l0.9,0.801
	c-0.98,1.22-2.681,1.84-4.241,1.84c-2.94,0-5.121-1.98-5.121-5.141c0-2.961,2.121-5.102,5.062-5.102s5.301,1.78,4.921,5.682H242.274
	z M249.616,702.998c-0.041-2.16-1.66-3.341-3.641-3.341s-3.441,1.2-3.701,3.341H249.616z"/>
<path fill="#5E5F65" d="M1.4,740.561v4.661H0v-14.003c2.081,0,4.181,0,6.261,0c6.261,0,6.261,9.322,0,9.342H1.4z M1.4,739.241h4.861
	c4.381,0,4.381-6.701,0-6.701H1.4V739.241z"/>
<path fill="#5E5F65" d="M15.66,735.34l0.08,1.62c0.64-1.32,1.96-1.78,3.141-1.78c0.9,0,1.52,0.2,2.24,0.7l-0.62,1.12
	c-0.5-0.34-1.06-0.521-1.7-0.521c-1.701,0.021-3.061,1.32-3.061,3.121v5.621H14.4v-9.882H15.66z"/>
<path fill="#5E5F65" d="M33.122,740.301c0,3.061-2.161,5.081-5.081,5.081c-2.881,0-5.081-2.021-5.081-5.081s2.12-5.142,5.081-5.142
	C30.921,735.16,33.122,737.241,33.122,740.301z M24.299,740.301c0,2.301,1.561,3.82,3.741,3.82c2.22,0,3.741-1.52,3.741-3.82
	c0-2.28-1.541-3.921-3.741-3.921C25.84,736.38,24.299,738.021,24.299,740.301z"/>
<path fill="#5E5F65" d="M38.139,731.219v6.081c0.74-1.46,2.341-2.141,3.881-2.141c2.781,0,4.981,1.82,4.981,5.121
	c0,3.281-2.181,5.121-4.981,5.121c-1.56,0-2.96-0.52-3.881-2.08l-0.08,1.9h-1.26v-14.003H38.139z M38.179,740.261
	c0,2.301,1.621,3.86,3.761,3.86c2.04,0,3.721-1.36,3.721-3.841c0-2.521-1.681-3.841-3.721-3.841
	C39.84,736.44,38.179,738,38.179,740.261z"/>
<path fill="#5E5F65" d="M52.179,731.219v14.003h-1.34v-14.003H52.179z"/>
<path fill="#5E5F65" d="M57.379,740.841c0.18,2.061,1.781,3.28,3.741,3.28c1.2,0,2.64-0.479,3.34-1.36l0.9,0.801
	c-0.98,1.22-2.681,1.84-4.241,1.84c-2.941,0-5.121-1.98-5.121-5.141c0-2.961,2.12-5.102,5.061-5.102c2.94,0,5.301,1.78,4.921,5.682
	H57.379z M64.721,739.701c-0.04-2.16-1.66-3.341-3.641-3.341s-3.441,1.2-3.701,3.341H64.721z M59.08,731.219h1.64l1.48,2.48v0.08
	h-1.26l-1.86-2.521V731.219z"/>
<path fill="#5E5F65" d="M76.7,745.222V739.5c0-1.74-1.16-3.08-2.9-3.08s-2.901,1.34-2.901,3.08v5.722h-1.34v-9.882h1.26l0.06,1.54
	c0.64-1.24,1.86-1.721,3.061-1.721c1.42,0,2.9,0.62,3.48,2.281c0.66-1.561,2.101-2.281,3.561-2.281c2.521,0,4.161,1.701,4.161,4.302
	v5.761h-1.34v-5.761c0-1.761-1.1-3.041-2.84-3.041c-1.741,0-2.921,1.34-2.921,3.08v5.722H76.7z"/>
<path fill="#5E5F65" d="M90.078,740.841c0.18,2.061,1.781,3.28,3.741,3.28c1.2,0,2.64-0.479,3.34-1.36l0.9,0.801
	c-0.98,1.22-2.681,1.84-4.241,1.84c-2.941,0-5.121-1.98-5.121-5.141c0-2.961,2.12-5.102,5.061-5.102c2.94,0,5.301,1.78,4.921,5.682
	H90.078z M97.42,739.701c-0.04-2.16-1.66-3.341-3.641-3.341s-3.441,1.2-3.701,3.341H97.42z"/>
<path fill="#5E5F65" d="M116.979,735.34h1.26c0,3.301,0,6.581,0,9.882H117v-1.96c-0.86,1.46-2.441,2.16-3.921,2.16
	c-2.801,0-5.041-2.001-5.041-5.142c0-3.12,2.26-5.081,5.061-5.081c1.52,0,3.141,0.7,3.881,2.101V735.34z M109.377,740.281
	c0,2.341,1.681,3.881,3.761,3.881c5.101,0,5.101-7.741,0-7.741C111.058,736.42,109.377,737.96,109.377,740.281z M111.238,731.08
	h1.64l1.48,2.48v0.08h-1.26l-1.86-2.521V731.08z"/>
<path fill="#5E5F65" d="M130.457,731.219v14.003h-1.34v-14.003H130.457z"/>
<path fill="#5E5F65" d="M143.219,735.34h1.26c0,3.301,0,6.581,0,9.882h-1.24v-1.96c-0.86,1.46-2.441,2.16-3.921,2.16
	c-2.801,0-5.041-2.001-5.041-5.142c0-3.12,2.261-5.081,5.062-5.081c1.52,0,3.141,0.7,3.881,2.101V735.34z M135.617,740.281
	c0,2.341,1.681,3.881,3.761,3.881c5.102,0,5.102-7.741,0-7.741C137.297,736.42,135.617,737.96,135.617,740.281z"/>
<path fill="#5E5F65" d="M162.358,745.222V739.5c0-1.74-1.16-3.08-2.9-3.08s-2.901,1.34-2.901,3.08v5.722h-1.34v-9.882h1.261
	l0.06,1.54c0.64-1.24,1.86-1.721,3.061-1.721c1.42,0,2.9,0.62,3.48,2.281c0.66-1.561,2.101-2.281,3.562-2.281
	c2.52,0,4.16,1.701,4.16,4.302v5.761h-1.34v-5.761c0-1.761-1.101-3.041-2.841-3.041c-1.741,0-2.921,1.34-2.921,3.08v5.722H162.358z"
	/>
<path fill="#5E5F65" d="M183.297,737.3v-1.96h1.26c0,3.301,0,6.581,0,9.882h-1.24v-1.96c-0.859,1.46-2.44,2.16-3.92,2.16
	c-2.801,0-5.041-2.001-5.041-5.142c0-3.12,2.26-5.081,5.061-5.081C180.936,735.2,182.557,735.9,183.297,737.3z M179.457,736.42
	c-2.081,0-3.761,1.54-3.761,3.86c0,2.341,1.68,3.881,3.761,3.881C184.557,744.162,184.557,736.42,179.457,736.42z M179.636,731.099
	l-2.82,2.601v0.14h1.4l1.88-1.7l1.881,1.7h1.38v-0.14l-2.8-2.601H179.636z"/>
<path fill="#5E5F65" d="M197.017,743.882c-1.04,1.02-2.321,1.5-3.661,1.5c-2.801,0-5.121-1.881-5.121-5.102
	c0-3.2,2.261-5.081,5.121-5.081c1.32,0,2.48,0.46,3.501,1.461l-0.88,0.86c-0.74-0.721-1.641-1.061-2.601-1.061
	c-2.101,0-3.802,1.4-3.802,3.82c0,2.48,1.721,3.821,3.781,3.821c1,0,2-0.38,2.74-1.12L197.017,743.882z"/>
<path fill="#5E5F65" d="M201.715,731.219v5.841c0.82-1.34,2.12-1.84,3.44-1.86c2.761,0,4.121,1.82,4.121,4.481v5.541h-1.341v-5.541
	c0-1.98-0.96-3.201-2.94-3.201c-1.921,0-3.261,1.501-3.261,3.421v5.321h-1.34v-14.003H201.715z"/>
<path fill="#5E5F65" d="M222.997,740.301c0,3.061-2.16,5.081-5.08,5.081c-2.881,0-5.082-2.021-5.082-5.081s2.121-5.142,5.082-5.142
	C220.796,735.16,222.997,737.241,222.997,740.301z M214.174,740.301c0,2.301,1.561,3.82,3.742,3.82c2.22,0,3.74-1.52,3.74-3.82
	c0-2.28-1.541-3.921-3.74-3.921C215.715,736.38,214.174,738.021,214.174,740.301z"/>
<path fill="#5E5F65" d="M228.315,732.24c0,1.26-1.9,1.26-1.9,0C226.415,730.979,228.315,730.979,228.315,732.24z M226.674,735.3
	v9.922h1.34V735.3H226.674z"/>
<path fill="#5E5F65" d="M233.594,735.34l0.08,1.62c0.641-1.32,1.961-1.78,3.141-1.78c0.9,0,1.521,0.2,2.24,0.7l-0.619,1.12
	c-0.5-0.34-1.061-0.521-1.701-0.521c-1.7,0.021-3.061,1.32-3.061,3.121v5.621h-1.34v-9.882H233.594z"/>
<path fill="#5E5F65" d="M242.274,740.841c0.181,2.061,1.781,3.28,3.742,3.28c1.199,0,2.64-0.479,3.34-1.36l0.9,0.801
	c-0.98,1.22-2.681,1.84-4.24,1.84c-2.941,0-5.121-1.98-5.121-5.141c0-2.961,2.119-5.102,5.061-5.102c2.94,0,5.301,1.78,4.921,5.682
	H242.274z M249.616,739.701c-0.039-2.16-1.66-3.341-3.641-3.341s-3.44,1.2-3.701,3.341H249.616z"/>
<path fill="#5E5F65" d="M147.659,486.4c-1.42,1.42-3.221,2.12-5.102,2.12c-4.84,0-7.262-3.24-7.281-7.142
	c-0.02-3.82,2.421-7.281,7.281-7.281c1.861,0,3.741,0.66,4.961,2.101l-0.859,0.86c-1.141-1.12-2.601-1.681-4.102-1.681
	c-3.9,0-5.881,2.881-5.881,5.981c0,3.28,1.98,5.861,5.881,5.861c1.501,0,3.081-0.601,4.201-1.721L147.659,486.4z"/>
<path fill="#5E5F65" d="M151.676,483.919c0.18,2.061,1.781,3.28,3.741,3.28c1.2,0,2.64-0.479,3.341-1.36l0.9,0.801
	c-0.98,1.22-2.682,1.84-4.241,1.84c-2.94,0-5.121-1.98-5.121-5.141c0-2.961,2.12-5.102,5.062-5.102c2.939,0,5.301,1.78,4.92,5.682
	H151.676z M159.018,482.779c-0.04-2.16-1.66-3.341-3.641-3.341s-3.441,1.2-3.701,3.341H159.018z"/>
<path fill="#5E5F65" d="M165.117,478.418l0.079,1.62c0.641-1.32,1.961-1.78,3.142-1.78c0.899,0,1.521,0.2,2.24,0.7l-0.62,1.12
	c-0.5-0.34-1.061-0.521-1.7-0.521c-1.7,0.021-3.062,1.32-3.062,3.121v5.621h-1.34v-9.882H165.117z"/>
<path fill="#5E5F65" d="M182.297,478.418l-4.16,9.901h-1.48l-4.161-9.901h1.48l3.421,8.422l3.42-8.422H182.297z"/>
<path fill="#5E5F65" d="M187.336,475.318c0,1.26-1.9,1.26-1.9,0C185.436,474.057,187.336,474.057,187.336,475.318z M185.696,478.378
	v9.922h1.34v-9.922H185.696z"/>
<path fill="#5E5F65" d="M199.497,486.96c-1.04,1.02-2.32,1.5-3.66,1.5c-2.801,0-5.121-1.881-5.121-5.102
	c0-3.2,2.26-5.081,5.121-5.081c1.32,0,2.48,0.46,3.5,1.461l-0.88,0.86c-0.739-0.721-1.64-1.061-2.601-1.061
	c-2.1,0-3.801,1.4-3.801,3.82c0,2.48,1.721,3.821,3.781,3.821c1,0,2-0.38,2.74-1.12L199.497,486.96z"/>
<path fill="#5E5F65" d="M210.937,478.418h1.261c0,3.301,0,6.581,0,9.882h-1.24v-1.96c-0.861,1.46-2.441,2.16-3.922,2.16
	c-2.801,0-5.041-2.001-5.041-5.142c0-3.12,2.261-5.081,5.062-5.081c1.521,0,3.141,0.7,3.881,2.101V478.418z M203.334,483.359
	c0,2.341,1.682,3.881,3.762,3.881c5.102,0,5.102-7.741,0-7.741C205.016,479.499,203.334,481.039,203.334,483.359z"/>
<path fill="#5E5F65" d="M217.995,474.297V488.3h-1.34v-14.003H217.995z"/>
<path fill="#5E5F65" d="M230.977,477.738l0.92,0.761l-1.061,1.26c0.74,0.82,1.32,1.7,1.32,3.281c0,1.74-0.96,3.561-2.98,4.141
	c1.86,0.5,2.921,1.601,2.921,3.24c0,2.48-2.461,3.761-5.081,3.761c-2.82,0-5.021-1.5-5.002-4.08h1.341
	c-0.021,1.86,1.78,2.78,3.661,2.78c1.82,0,3.721-0.7,3.721-2.461c0-1.74-1.881-2.521-3.721-2.521c-3.041,0-5.182-1.78-5.182-4.86
	c0-3.221,2.701-4.861,5.182-4.861c0.939,0,2.18,0.28,2.92,0.8L230.977,477.738z M223.195,483.04c0,2.44,1.681,3.62,3.821,3.62
	c2.28,0,3.801-1.66,3.801-3.62c0-2.461-1.861-3.602-3.801-3.602C225.196,479.438,223.195,480.559,223.195,483.04z"/>
<path fill="#5E5F65" d="M237.514,475.318c0,1.26-1.9,1.26-1.9,0C235.614,474.057,237.514,474.057,237.514,475.318z M235.875,478.378
	v9.922h1.34v-9.922H235.875z"/>
<path fill="#5E5F65" d="M242.274,483.919c0.18,2.061,1.781,3.28,3.741,3.28c1.2,0,2.64-0.479,3.341-1.36l0.9,0.801
	c-0.98,1.22-2.682,1.84-4.241,1.84c-2.94,0-5.121-1.98-5.121-5.141c0-2.961,2.12-5.102,5.062-5.102c2.939,0,5.301,1.78,4.92,5.682
	H242.274z M249.616,482.779c-0.04-2.16-1.66-3.341-3.641-3.341s-3.441,1.2-3.701,3.341H249.616z"/>
<path fill="#5E5F65" d="M170.176,154.732h-8.121l-1.441,3.24h-1.48l6.282-14.003h1.399l6.282,14.003h-1.48L170.176,154.732z
	 M162.615,153.452h7.001l-3.5-7.962L162.615,153.452z"/>
<path fill="#5E5F65" d="M177.534,148.09l0.08,1.62c0.641-1.32,1.961-1.78,3.141-1.78c0.9,0,1.521,0.2,2.24,0.7l-0.619,1.12
	c-0.5-0.34-1.061-0.521-1.701-0.521c-1.7,0.021-3.061,1.32-3.061,3.121v5.621h-1.34v-9.882H177.534z"/>
<path fill="#5E5F65" d="M188.334,145.169v2.94h3.201v1.141h-3.201v5.581c0,1.24,0.34,2.061,1.68,2.061
	c0.461,0,0.961-0.16,1.441-0.38l0.42,1.12c-0.641,0.3-1.261,0.479-1.9,0.479c-2.121,0.021-2.98-1.22-2.98-3.28v-5.581h-2.021v-1.141
	h2.021v-2.801L188.334,145.169z"/>
<path fill="#5E5F65" d="M196.194,143.969v5.841c0.82-1.34,2.121-1.84,3.441-1.86c2.76,0,4.121,1.82,4.121,4.481v5.541h-1.341v-5.541
	c0-1.98-0.96-3.201-2.94-3.201c-1.921,0-3.262,1.501-3.262,3.421v5.321h-1.34v-14.003H196.194z"/>
<path fill="#5E5F65" d="M209.213,148.09l0.08,1.62c0.641-1.32,1.961-1.78,3.141-1.78c0.9,0,1.521,0.2,2.24,0.7l-0.619,1.12
	c-0.5-0.34-1.061-0.521-1.701-0.521c-1.7,0.021-3.061,1.32-3.061,3.121v5.621h-1.34v-9.882H209.213z"/>
<path fill="#5E5F65" d="M226.676,153.051c0,3.061-2.161,5.081-5.082,5.081c-2.881,0-5.08-2.021-5.08-5.081s2.119-5.142,5.08-5.142
	C224.475,147.91,226.676,149.991,226.676,153.051z M217.854,153.051c0,2.301,1.561,3.82,3.74,3.82c2.221,0,3.741-1.52,3.741-3.82
	c0-2.28-1.54-3.921-3.741-3.921C219.394,149.13,217.854,150.771,217.854,153.051z"/>
<path fill="#5E5F65" d="M236.795,150.111c-0.921-0.841-1.861-1.001-2.922-1.001c-1.439-0.02-2.721,0.501-2.68,1.601
	c0.02,1.16,1.46,1.44,2.7,1.62c1.78,0.261,4.081,0.561,4.081,2.961c-0.04,2.08-2.061,2.881-4.061,2.881
	c-1.701,0-3.381-0.561-4.381-1.921l0.84-0.92c0.84,1.141,2.301,1.58,3.561,1.601c1.12,0,2.701-0.32,2.701-1.66
	c0-1.301-1.281-1.541-2.861-1.761c-1.9-0.28-3.881-0.72-3.9-2.761c0-2.021,2.04-2.881,3.98-2.86c1.48,0,2.701,0.4,3.721,1.34
	L236.795,150.111z"/>
<path fill="#5E5F65" d="M242.273,153.591c0.181,2.061,1.78,3.28,3.741,3.28c1.2,0,2.641-0.479,3.34-1.36l0.9,0.801
	c-0.98,1.22-2.68,1.84-4.24,1.84c-2.941,0-5.121-1.98-5.121-5.141c0-2.961,2.12-5.102,5.061-5.102c2.941,0,5.301,1.78,4.922,5.682
	H242.273z M249.615,152.451c-0.04-2.16-1.66-3.341-3.641-3.341s-3.44,1.2-3.701,3.341H249.615z"/>
<path fill="#5E5F65" d="M116.516,268.082v-14.003h9.582v1.32h-8.182v5.321h7.881v1.32h-7.881v6.041H116.516z"/>
<path fill="#5E5F65" d="M131.417,255.099c0,1.26-1.9,1.26-1.9,0C129.516,253.838,131.417,253.838,131.417,255.099z M129.776,258.16
	v9.922h1.339v-9.922H129.776z"/>
<path fill="#5E5F65" d="M136.776,254.079v6.081c0.74-1.46,2.341-2.141,3.881-2.141c2.781,0,4.981,1.82,4.981,5.121
	c0,3.281-2.181,5.121-4.981,5.121c-1.561,0-2.961-0.52-3.881-2.08l-0.08,1.9h-1.26v-14.003H136.776z M136.816,263.121
	c0,2.301,1.62,3.86,3.761,3.86c2.041,0,3.721-1.36,3.721-3.841c0-2.521-1.68-3.841-3.721-3.841
	C138.477,259.299,136.816,260.86,136.816,263.121z"/>
<path fill="#5E5F65" d="M150.596,258.2l0.08,1.62c0.64-1.32,1.96-1.78,3.141-1.78c0.9,0,1.52,0.2,2.24,0.7l-0.62,1.12
	c-0.5-0.34-1.06-0.521-1.7-0.521c-1.701,0.021-3.061,1.32-3.061,3.121v5.621h-1.34V258.2H150.596z"/>
<path fill="#5E5F65" d="M168.057,263.161c0,3.061-2.16,5.081-5.08,5.081c-2.881,0-5.082-2.021-5.082-5.081s2.121-5.142,5.082-5.142
	C165.857,258.019,168.057,260.1,168.057,263.161z M159.235,263.161c0,2.301,1.561,3.82,3.742,3.82c2.22,0,3.74-1.52,3.74-3.82
	c0-2.28-1.541-3.921-3.74-3.921C160.776,259.24,159.235,260.88,159.235,263.161z"/>
<path fill="#5E5F65" d="M178.876,268.082v-5.722c0-1.74-1.16-3.08-2.9-3.08s-2.901,1.34-2.901,3.08v5.722h-1.34V258.2h1.261
	l0.06,1.54c0.641-1.24,1.861-1.721,3.061-1.721c1.42,0,2.9,0.62,3.48,2.281c0.66-1.561,2.102-2.281,3.562-2.281
	c2.521,0,4.161,1.701,4.161,4.302v5.761h-1.341v-5.761c0-1.761-1.101-3.041-2.841-3.041s-2.92,1.34-2.92,3.08v5.722H178.876z"/>
<path fill="#5E5F65" d="M199.756,258.2l-6.261,14.603h-1.46l2.08-4.841l-3.961-9.762h1.5l2.101,5.461l1.101,2.841l1.12-2.841
	l2.3-5.461H199.756z"/>
<path fill="#5E5F65" d="M210.936,258.2h1.261c0,3.301,0,6.581,0,9.882h-1.24v-1.96c-0.86,1.46-2.44,2.16-3.921,2.16
	c-2.801,0-5.041-2.001-5.041-5.142c0-3.12,2.26-5.081,5.061-5.081c1.521,0,3.141,0.7,3.881,2.101V258.2z M203.334,263.14
	c0,2.341,1.681,3.881,3.762,3.881c5.101,0,5.101-7.741,0-7.741C205.015,259.28,203.334,260.82,203.334,263.14z"/>
<path fill="#5E5F65" d="M217.995,254.079v14.003h-1.34v-14.003H217.995z"/>
<path fill="#5E5F65" d="M230.976,257.519l0.921,0.761l-1.061,1.26c0.74,0.82,1.32,1.7,1.32,3.281c0,1.74-0.961,3.561-2.98,4.141
	c1.859,0.5,2.92,1.601,2.92,3.24c0,2.48-2.461,3.761-5.081,3.761c-2.82,0-5.021-1.5-5.001-4.08h1.34
	c-0.02,1.86,1.781,2.78,3.661,2.78c1.821,0,3.722-0.7,3.722-2.461c0-1.74-1.881-2.521-3.722-2.521c-3.04,0-5.181-1.78-5.181-4.86
	c0-3.221,2.7-4.861,5.181-4.861c0.94,0,2.181,0.28,2.921,0.8L230.976,257.519z M223.194,262.821c0,2.44,1.682,3.62,3.821,3.62
	c2.28,0,3.802-1.66,3.802-3.62c0-2.461-1.861-3.602-3.802-3.602C225.195,259.219,223.194,260.34,223.194,262.821z"/>
<path fill="#5E5F65" d="M237.514,255.099c0,1.26-1.9,1.26-1.9,0C235.614,253.838,237.514,253.838,237.514,255.099z M235.874,258.16
	v9.922h1.34v-9.922H235.874z"/>
<path fill="#5E5F65" d="M242.274,263.701c0.18,2.061,1.781,3.28,3.741,3.28c1.2,0,2.64-0.479,3.341-1.36l0.9,0.801
	c-0.98,1.22-2.682,1.84-4.241,1.84c-2.94,0-5.121-1.98-5.121-5.141c0-2.961,2.12-5.102,5.062-5.102c2.939,0,5.301,1.78,4.92,5.682
	H242.274z M249.616,262.56c-0.04-2.16-1.66-3.341-3.641-3.341s-3.441,1.2-3.701,3.341H249.616z"/>
</svg>
