<?xml version="1.0" encoding="utf-8"?>
<!-- Generator: Adobe Illustrator 15.0.0, SVG Export Plug-In  -->
<!DOCTYPE svg PUBLIC "-//W3C//DTD SVG 1.1//EN" "http://www.w3.org/Graphics/SVG/1.1/DTD/svg11.dtd" [
	<!ENTITY ns_flows "http://ns.adobe.com/Flows/1.0/">
]>
<svg version="1.1"
	 xmlns="http://www.w3.org/2000/svg" xmlns:xlink="http://www.w3.org/1999/xlink" xmlns:a="http://ns.adobe.com/AdobeSVGViewerExtensions/3.0/"
	 x="0px" y="0px" width="84px" height="21px" viewBox="0 0 84 21" overflow="visible" enable-background="new 0 0 84 21"
	 xml:space="preserve">
<defs>
</defs>
<path fill="#B5BBB9" d="M1.747,9.853h77.023l-6.767-6.767c-0.457-0.46-0.457-1.179,0-1.636c0.443-0.444,1.195-0.444,1.639-0.001
	l9.494,9.468l-9.521,9.525c-0.222,0.22-0.512,0.341-0.818,0.341c-0.305,0-0.596-0.121-0.82-0.344
	c-0.457-0.46-0.456-1.18,0.002-1.638l6.766-6.766H1.747c-0.654,0-1.168-0.48-1.168-1.093C0.579,10.332,1.093,9.853,1.747,9.853z"/>
<rect fill="none" width="84" height="21"/>
</svg>
