<?xml version="1.0" encoding="utf-8"?>
<!-- Generator: Adobe Illustrator 15.0.0, SVG Export Plug-In  -->
<!DOCTYPE svg PUBLIC "-//W3C//DTD SVG 1.1//EN" "http://www.w3.org/Graphics/SVG/1.1/DTD/svg11.dtd" [
	<!ENTITY ns_flows "http://ns.adobe.com/Flows/1.0/">
]>
<svg version="1.1"
	 xmlns="http://www.w3.org/2000/svg" xmlns:xlink="http://www.w3.org/1999/xlink" xmlns:a="http://ns.adobe.com/AdobeSVGViewerExtensions/3.0/"
	 x="0px" y="0px" width="70px" height="71px" viewBox="-0.143 -0.393 70 71"
	 overflow="visible" enable-background="new -0.143 -0.393 70 71" xml:space="preserve">
<defs>
</defs>
<path opacity="0.73" fill="#D1D3D4" d="M63.008,0.5c3.311,0,5.993,2.684,5.993,5.993v57.015c0,3.311-2.683,5.992-5.993,5.992H5.993
	C2.684,69.5,0,66.818,0,63.508V6.493C0,3.184,2.684,0.5,5.993,0.5H63.008z"/>
<path opacity="0.73" fill="#FFFFFF" d="M36.037,11.452l21.126,21.125c0.396,0.396,0.592,0.912,0.592,1.429
	c0,0.518-0.196,1.034-0.592,1.43c-0.79,0.79-2.068,0.79-2.858,0L34.607,15.738L14.912,35.436c-0.79,0.789-2.068,0.789-2.858,0
	c-0.789-0.789-0.789-2.068,0-2.858L33.18,11.452C33.969,10.663,35.248,10.663,36.037,11.452z"/>
<path fill="#FFFFFF" d="M17.59,44.443v5.168c0.757-1.171,1.945-1.566,3.079-1.585c2.503,0,3.728,1.657,3.728,4.105v4.897h-1.459
	v-4.88c0-1.746-0.9-2.736-2.521-2.736s-2.809,1.278-2.809,2.898v4.718h-1.477V44.426h1.458V44.443z"/>
<path fill="#FFFFFF" d="M34.277,57.065l-0.035-1.62c-0.703,1.224-2.053,1.8-3.277,1.8c-2.557,0-4.556-1.765-4.556-4.663
	c0-2.881,2.035-4.609,4.573-4.592c1.333,0,2.647,0.612,3.295,1.765l0.019-1.62h1.44v8.895h-1.423L34.277,57.065z M31.037,49.395
	c-1.765,0-3.188,1.261-3.188,3.241s1.423,3.259,3.188,3.259c4.285,0,4.285-6.518,0.018-6.518L31.037,49.395z"/>
<path fill="#FFFFFF" d="M45.348,57.029l-0.072-1.423c-0.792,1.081-1.854,1.549-3.097,1.567c-2.269,0-3.871-1.531-3.871-4.124v-4.915
	h1.477v4.897c0,1.71,1.008,2.772,2.7,2.772c1.621-0.018,2.737-1.296,2.737-2.898v-4.771h1.477v8.895h-1.369H45.348z"/>
<path fill="#FFFFFF" d="M51.898,48.152h2.755v1.261H51.88v4.699c0,1.044,0.343,1.711,1.404,1.711c0.396,0,0.847-0.126,1.243-0.324
	l0.432,1.225c-0.594,0.27-1.135,0.414-1.729,0.432c-1.908,0.036-2.809-1.08-2.809-3.043v-4.699h-1.783v-1.261h1.783v-2.448
	l1.477-0.162V48.152z"/>
<rect id="_x3C_Tranche_x3E__1_" fill="none" width="69" height="70"/>
</svg>
